<?xml version="1.0" encoding="utf-8"?>
<!-- Generator: Adobe Illustrator 19.2.1, SVG Export Plug-In . SVG Version: 6.00 Build 0)  -->
<svg version="1.1" id="Layer_1" xmlns="http://www.w3.org/2000/svg" xmlns:xlink="http://www.w3.org/1999/xlink" x="0px" y="0px"
	 viewBox="0 0 500 500" style="enable-background:new 0 0 500 500;" xml:space="preserve">
<style type="text/css">
	.st0{fill:#FFFFFF;}
	.st1{fill-rule:evenodd;clip-rule:evenodd;fill:#21395A;}
</style>
<line class="st0" x1="262.7" y1="50.7" x2="182.6" y2="130.9"/>
<line class="st0" x1="-63" y1="53.9" x2="-63" y2="230.8"/>
<g>
	<path class="st1" d="M37.4,7.1h167c16.7,0,30.4,13.7,30.4,30.4v167c0,16.7-13.7,30.4-30.4,30.4h-167c-16.7,0-30.4-13.7-30.4-30.4
		v-167C7.1,20.7,20.7,7.1,37.4,7.1L37.4,7.1z M37.4,265.2h167c16.7,0,30.4,13.7,30.4,30.4v167c0,16.7-13.7,30.4-30.4,30.4h-167
		c-16.7,0-30.4-13.7-30.4-30.4v-167C7.1,278.8,20.7,265.2,37.4,265.2L37.4,265.2z M78.6,315.2c-2.7-2.8-6.5-4.5-10.8-4.5
		c-8.4,0-15.2,6.8-15.2,15.2c0,4.2,1.7,8,4.5,10.8l42.4,42.4l-42.4,42.4c-2.8,2.8-4.5,6.6-4.5,10.8c0,8.4,6.8,15.2,15.2,15.2
		c4.2,0,8-1.7,10.8-4.5l42.4-42.4l42.4,42.4c2.7,2.8,6.6,4.5,10.8,4.5c8.4,0,15.2-6.8,15.2-15.2c0-4.2-1.7-8-4.5-10.8l-42.4-42.4
		l42.4-42.4c2.8-2.8,4.5-6.6,4.5-10.8c0-8.4-6.8-15.2-15.2-15.2c-4.2,0-8,1.7-10.8,4.5l-42.4,42.4L78.6,315.2L78.6,315.2z
		 M295.5,265.2h167c16.7,0,30.4,13.7,30.4,30.4v167c0,16.7-13.7,30.4-30.4,30.4h-167c-16.7,0-30.4-13.7-30.4-30.4v-167
		C265.2,278.8,278.8,265.2,295.5,265.2L295.5,265.2z M447.4,401.8c0-8.3-6.8-15.2-15.2-15.2H325.9c-8.3,0-15.2,6.9-15.2,15.2
		c0,8.3,6.8,15.2,15.2,15.2h106.3C440.5,417,447.4,410.1,447.4,401.8L447.4,401.8z M447.4,341.1c0-8.4-6.8-15.2-15.2-15.2H325.9
		c-8.3,0-15.2,6.9-15.2,15.2c0,8.3,6.8,15.2,15.2,15.2h106.3C440.5,356.3,447.4,349.4,447.4,341.1L447.4,341.1z M295.5,7.1h167
		c16.7,0,30.4,13.7,30.4,30.4v167c0,16.7-13.7,30.4-30.4,30.4h-167c-16.7,0-30.4-13.7-30.4-30.4v-167
		C265.2,20.7,278.8,7.1,295.5,7.1L295.5,7.1z M447.4,120.9c0-8.4-6.8-15.2-15.2-15.2H325.9c-8.3,0-15.2,6.9-15.2,15.2
		c0,8.4,6.8,15.2,15.2,15.2h106.3C440.5,136.1,447.4,129.2,447.4,120.9L447.4,120.9z M120.9,52.6c-8.4,0-15.2,6.8-15.2,15.2v38h-38
		c-8.3,0-15.2,6.9-15.2,15.2c0,8.4,6.8,15.2,15.2,15.2h38v38c0,8.3,6.9,15.2,15.2,15.2c8.3,0,15.2-6.8,15.2-15.2v-38h38
		c8.3,0,15.2-6.9,15.2-15.2c0-8.4-6.8-15.2-15.2-15.2h-38v-38C136.1,59.5,129.2,52.6,120.9,52.6z"/>
</g>
</svg>
