<?xml version="1.0" encoding="utf-8"?>
<!-- Generator: Adobe Illustrator 19.2.1, SVG Export Plug-In . SVG Version: 6.00 Build 0)  -->
<svg version="1.1" id="Layer_1" xmlns="http://www.w3.org/2000/svg" xmlns:xlink="http://www.w3.org/1999/xlink" x="0px" y="0px"
	 viewBox="0 0 500 500" style="enable-background:new 0 0 500 500;" xml:space="preserve">
<style type="text/css">
	.st0{fill:#21395A;}
</style>
<path class="st0" d="M375.4,9.5c35,0,63.4,37.2,63.4,83.2c0,45.9-28.4,83.2-63.4,83.2c-35,0-63.3-37.2-63.3-83.2
	C312,46.7,340.4,9.5,375.4,9.5z M250.6,110.9c35,0,63.3,37.2,63.3,83.2c0,45.9-28.4,83.2-63.3,83.2c-35,0-63.4-37.2-63.4-83.2
	C187.2,148.2,215.6,110.9,250.6,110.9z M125.8,9.5c35,0,63.3,37.2,63.3,83.2c0,45.9-28.4,83.2-63.3,83.2c-35,0-63.4-37.2-63.4-83.2
	C62.5,46.7,90.8,9.5,125.8,9.5z M54.8,377.6l-8.3-66.6v63.4C29.8,367.8,15.7,359,5,348.7v-50.1c0-53,13.8-102.1,90-112.1
	c9.2,6.2,19.7,9.7,30.8,9.7c11.1,0,21.6-3.5,30.9-9.8c4.8,0.6,9.3,1.4,13.6,2.3c-0.1,1.8-0.1,3.6-0.1,5.5c0,29.9,9.5,56.9,24.8,76.1
	c-52.3,14.6-79.2,53.6-82,118.4C92,387.5,72.2,383.7,54.8,377.6z M368.6,453c-10.3,9.1-23.5,16.9-38.7,23v-63.6l-8.4,66.7
	c-20.9,7.2-45,11.3-70.8,11.3c-25.9,0-50.2-4.2-71.1-11.4l-8.3-66.6V476c-16.7-6.7-30.8-15.5-41.5-25.8V400
	c0-53.1,13.8-102.1,90-112.1c9.2,6.2,19.7,9.7,30.8,9.7c11.1,0,21.6-3.6,30.9-9.8c77.3,9.9,87.1,59,87.1,112.2V453z M496.2,348.7
	c-10.7,10.3-24.8,19-41.5,25.8v-63.4l-8.3,66.6c-18.2,6.3-38.8,10.2-60.9,11.2c-1.5-48.4-14.4-100.9-79.1-118.7
	c15.2-19.2,24.7-46.2,24.7-76c0-1.8,0-3.7-0.1-5.5c4.3-0.9,8.8-1.7,13.6-2.3c9.3,6.3,19.8,9.8,30.9,9.8c11.1,0,21.6-3.5,30.8-9.7
	c76.2,10.1,90,59.1,90,112.1V348.7z"/>
</svg>
