<?xml version="1.0" encoding="utf-8"?>
<!-- Generator: Adobe Illustrator 19.2.1, SVG Export Plug-In . SVG Version: 6.00 Build 0)  -->
<svg version="1.1" id="Layer_1" xmlns="http://www.w3.org/2000/svg" xmlns:xlink="http://www.w3.org/1999/xlink" x="0px" y="0px"
	 viewBox="0 0 500 500" style="enable-background:new 0 0 500 500;" xml:space="preserve">
<style type="text/css">
	.st0{fill:#21395A;}
</style>
<g id="XMLID_207_">
	<g>
		<path class="st0" d="M304.9,262.5c-27.6,14.2-38.1,47.4-23.2,74c14.8,26.6,49.2,36.6,76.8,22.4c27.7-14.3,38.1-47.4,23.3-74
			C367,258.3,332.6,248.3,304.9,262.5z M348.8,400.1c-39.3,6.9-80.4-10.8-100.2-46.5c-24.6-44.2-7.3-99.2,38.6-122.9
			c45.9-23.7,103.1-7,127.7,37.2c19.8,35.7,12.3,78.4-15.4,106l11.2,20.2l9.3-4.8l39.4,71L390.3,496l-39.5-71l9.3-4.8L348.8,400.1z"
			/>
		<polygon class="st0" points="247.7,7.7 247.8,7.6 247.9,7.8 362.2,95.4 362.2,47.8 446.6,47.8 446.6,160.2 488.5,192.3 
			446.4,243.1 247.7,90.7 49.1,243.1 7,192.3 247.6,7.8 247.7,7.6 		"/>
		<path class="st0" d="M340,194.6c-21.9-1.4-44.5,2.8-65.3,13.6c-58.8,30.3-81,100.9-49.5,157.4c6.8,12.2,15.6,22.9,25.8,31.6H152
			H91.1V243.1l156.6-117.7L340,194.6z"/>
	</g>
</g>
</svg>
