<?xml version="1.0" encoding="utf-8"?>
<!-- Generator: Adobe Illustrator 19.2.1, SVG Export Plug-In . SVG Version: 6.00 Build 0)  -->
<svg version="1.1" id="Layer_1" xmlns="http://www.w3.org/2000/svg" xmlns:xlink="http://www.w3.org/1999/xlink" x="0px" y="0px"
	 viewBox="0 0 500 500" style="enable-background:new 0 0 500 500;" xml:space="preserve">
<style type="text/css">
	.st0{fill:#FFFFFF;}
	.st1{fill:#21395A;}
</style>
<line class="st0" x1="262.7" y1="50.7" x2="182.6" y2="130.9"/>
<line class="st0" x1="-63" y1="53.9" x2="-63" y2="230.8"/>
<g>
	<path class="st1" d="M387.7,11.6H80.1c-22.3,0-40.3,20.6-40.3,46v17.8h33.2c18,0,32.7,16.7,32.7,37.3c0,20.6-14.7,37.3-32.7,37.3
		H39.7v65.7h33.2c18,0,32.7,16.7,32.7,37.3c0,20.6-14.7,37.3-32.7,37.3H39.7v65.7h33.2c18,0,32.7,16.7,32.7,37.3
		c0,20.6-14.7,37.3-32.7,37.3H39.7v17.8c0,25.4,18.1,46,40.3,46h307.7c22.3,0,40.3-20.6,40.3-46V57.5
		C428.1,32.1,410,11.6,387.7,11.6z"/>
	<path class="st1" d="M72.9,130.4c8.6,0,15.6-8,15.6-17.8c0-9.8-7-17.8-15.6-17.8H23.4c-8.6,0-15.6,8-15.6,17.8s7,17.8,15.6,17.8
		H72.9z"/>
	<path class="st1" d="M72.9,270.6c8.6,0,15.6-8,15.6-17.8c0-9.8-7-17.8-15.6-17.8H23.4c-8.6,0-15.6,8-15.6,17.8
		c0,9.8,7,17.8,15.6,17.8H72.9z"/>
	<path class="st1" d="M72.9,410.9c8.6,0,15.6-8,15.6-17.8s-7-17.8-15.6-17.8H23.4c-8.6,0-15.6,8-15.6,17.8s7,17.8,15.6,17.8H72.9z"
		/>
	<rect x="440.5" y="52.5" class="st1" width="52" height="90.3"/>
	<rect x="440.5" y="155.9" class="st1" width="52" height="90.3"/>
	<rect x="440.5" y="259.4" class="st1" width="52" height="90.3"/>
	<rect x="440.5" y="362.8" class="st1" width="52" height="90.3"/>
	<g>
		<path class="st0" d="M287.7,245.2c-11.9,7.4-25.3,11.3-38.9,11.3c-13.6,0-27-3.9-38.9-11.3c-33.2,14.8-56.4,47.1-56.4,78.9v70.2
			H344v-70.2C344,292.4,320.9,260.1,287.7,245.2z"/>
		<path class="st0" d="M278,220c16.9-11.4,28.3-32.4,28.3-56.4c0-36.2-25.7-65.5-57.5-65.5c-31.8,0-57.5,29.3-57.5,65.5
			c0,24,11.4,45,28.3,56.4c8.6,5.8,18.6,9.1,29.2,9.1C259.4,229.1,269.4,225.8,278,220z"/>
	</g>
</g>
</svg>
