<?xml version="1.0" encoding="utf-8"?>
<!-- Generator: Adobe Illustrator 19.2.1, SVG Export Plug-In . SVG Version: 6.00 Build 0)  -->
<svg version="1.1" id="Capa_1" xmlns="http://www.w3.org/2000/svg" xmlns:xlink="http://www.w3.org/1999/xlink" x="0px" y="0px"
	 viewBox="0 0 600 600" style="enable-background:new 0 0 600 600;" xml:space="preserve">
<style type="text/css">
	.st0{fill:#21395A;}
</style>
<g>
	<path class="st0" d="M566.4,65.8c-9.1-9.1-20.1-13.7-33-13.7H66.6c-12.8,0-23.8,4.6-33,13.7c-9.1,9.1-13.7,20.1-13.7,33v317.4
		c0,12.8,4.6,23.8,13.7,33c9.1,9.1,20.1,13.7,33,13.7h158.7c0,7.4-1.6,15-4.7,22.8c-3.1,7.8-6.2,14.6-9.3,20.4
		c-3.1,5.8-4.7,10.1-4.7,12.8c0,5.1,1.8,9.4,5.5,13.1c3.7,3.7,8.1,5.6,13.1,5.6h149.4c5.1,0,9.4-1.9,13.1-5.6
		c3.7-3.7,5.5-8.1,5.5-13.1c0-2.5-1.6-6.8-4.7-12.7c-3.1-5.9-6.2-12.8-9.3-20.7c-3.1-7.9-4.7-15.4-4.7-22.6h158.7
		c12.8,0,23.8-4.6,33-13.7c9.1-9.1,13.7-20.1,13.7-33V98.7C580.1,85.9,575.5,74.9,566.4,65.8z M542.7,341.5c0,2.5-0.9,4.7-2.8,6.6
		c-1.8,1.8-4,2.8-6.6,2.8H66.6c-2.5,0-4.7-0.9-6.6-2.8c-1.8-1.9-2.8-4-2.8-6.6V98.7c0-2.5,0.9-4.7,2.8-6.6c1.8-1.8,4-2.8,6.6-2.8
		h466.8c2.5,0,4.7,0.9,6.6,2.8c1.8,1.8,2.8,4,2.8,6.6V341.5L542.7,341.5z"/>
</g>
</svg>
