<?xml version="1.0" encoding="utf-8"?>
<!-- Generator: Adobe Illustrator 19.2.1, SVG Export Plug-In . SVG Version: 6.00 Build 0)  -->
<svg version="1.1" id="Layer_1" xmlns="http://www.w3.org/2000/svg" xmlns:xlink="http://www.w3.org/1999/xlink" x="0px" y="0px"
	 viewBox="0 0 500 500" style="enable-background:new 0 0 500 500;" xml:space="preserve">
<style type="text/css">
	.st0{fill:#21395A;}
</style>
<path class="st0" d="M475.2,138.5l-73.5-3.5c-10.9-4.8-56.3-24.3-103.2-38.6l30.1-42.7c0,0-8.9-20.6-20.9-31.9
	c-12-11.2-30.5-16.2-30.5-16.2L224,80.9c-0.1,0-0.2,0-0.4,0c-11.2-0.1-65.2,17-109,31.8c-2.8,0.9-5.3,2.8-7.1,5.4L13.7,248.2
	c-4.7,6.5-4.5,15.9,0.4,22.2c1.8,2.2,18,21.9,43.7,22.1c6.7,0,13.5-1.8,20.2-4.6l-36.8,52.3L22,417.1c-1.7,6.6,4.4,12.3,9.7,9.1
	l61-37.7l46.9-66.6c3.9,11.1,9.9,23.5,19.2,31.7c2.1,1.8,4.7,3.3,7.8,4.6c2.7,23.2,17.9,54.1,49.1,58c0.1,0.4,0,0.8,0,1.2
	c3.3,15.2,16.2,42.3,43.7,47.5c5.6,1,16.1,2.2,28.5,2.2c30.5,0,72.2-6.9,77.7-39.1c2.5-14.7-0.1-27-3.4-35.9
	c11.5-4.3,43.3-17.7,67.8-41.4h44.6c8.1,0,14.6-7.6,14.6-16.9V155.4C489.2,146.3,483,138.9,475.2,138.5z M92,237.1
	c-11.5,14.3-22.8,21.6-33.6,21.6h-0.1c-4.5,0-8.5-1.3-11.9-3l80.8-112.1c24.1-8.1,49.3-16.2,68-21.8l-26.8,38
	c-0.2,0.1-0.5,0.2-0.7,0.3C166.4,161.2,136.4,182,92,237.1z M176.6,326.7c-3.7-3.3-6.9-9.4-9.3-15.8c15.4-2.4,33.5-9.5,53.5-25.9
	c8.5,3.2,23.2,8.1,40.9,11.4v0.1c16.6,2.8,28.1,8.9,33.1,17.5c1.1,1.9,1.8,3.8,2.2,5.5C244.8,328.9,187,333.9,176.6,326.7z
	 M225.8,383c-17.4,1.8-24.8-10.1-28-19.6c2.6,0.1,5.1,0.3,7.8,0.3c33.8,0,75.9-7,101.8-11.9c0.6,0.6,1,1.4,1.7,1.9
	c7.5,5.8,11.5,12.7,13.6,18.9C300.3,374.9,256,379.7,225.8,383z M337,421.2c-4,8.7-43.9,15.8-72.9,10.4
	c-10.2-1.9-15.5-10.8-18.1-16.8c30.6-3.3,67.4-7.3,84.1-9c1.6-0.2,3.2-0.6,4.8-1.1C336.6,408.5,338.2,414.2,337,421.2z M460,316.9
	h-35.4c-3.7,0-7.2,1.6-9.9,4.4c-23.2,24.6-59.6,38-64.5,39.7c-4.5-13.5-12.5-25.3-23.3-34.1c0.2-7.7-1-18.1-6.3-28.9
	c11-1.6,22.1-4.2,32.8-9c7.5-3.3,11.3-13.1,8.4-21.8c-2.9-8.7-11.3-13-18.9-9.7c-51.6,22.9-118.5-6.9-119.1-7.3
	c-4.8-2.2-10.3-1.3-14.4,2.4c-28.7,25.9-51.2,27.5-64.9,24.1l47.3-71.1l121.4-6.9c7.8-0.4,13.9-7.9,13.9-16.9s-6.2-16.4-14-16.8
	l-60.8-3.1l25.8-36.6c54.9,15.4,114.5,41.8,115.3,42.2c1.5,0.7,3.1,1,4.7,1.1l61.9,3L460,316.9L460,316.9z"/>
<path class="st0" d="M12.1,483.5c0,5.3,7.2,9.7,16.2,9.7h449c8.9,0,16.2-4.3,16.2-9.7s-7.2-9.7-16.2-9.7h-449
	C19.4,473.9,12.1,478.2,12.1,483.5"/>
</svg>
