<?xml version="1.0" encoding="utf-8"?>
<!-- Generator: Adobe Illustrator 19.2.1, SVG Export Plug-In . SVG Version: 6.00 Build 0)  -->
<svg version="1.1" id="Layer_1" xmlns="http://www.w3.org/2000/svg" xmlns:xlink="http://www.w3.org/1999/xlink" x="0px" y="0px"
	 viewBox="0 0 600 600" style="enable-background:new 0 0 600 600;" xml:space="preserve">
<style type="text/css">
	.st0{fill:#1E3250;}
</style>
<g transform="translate(0.000000,200.000000) scale(0.100000,-0.100000)">
	<path class="st0" d="M1575.5,1328.4L236.3,1040V-792.8v-1828.1l1432.6-483.8l1432.6-483.8l738.6,260.5
		c405.8,144.2,998.4,353.5,1319,469.8l576.3,209.3v1949.1V1254l-89.3,18.6c-215.1,55.8-2431,353.5-2577.1,348.9
		C2983.8,1616.8,2314.2,1486.6,1575.5,1328.4z M4314.9,1393.5c547.9-74.4,1022.7-139.6,1055.2-144.2
		c121.8-4.7-44.6-46.5-1136.4-274.5L3117.7,742.3L1851.5,867.9c-698,74.4-1270.3,144.2-1270.3,162.8c0,23.3,40.6,37.2,93.3,37.2
		c48.7,4.7,600.6,116.3,1225.6,251.2c625,139.6,1201.3,241.9,1278.4,232.6S3767.1,1468,4314.9,1393.5z M5654.2-699.7v-1902.6
		l-454.5-162.8c-1505.7-534.9-2045.4-725.7-2069.8-725.7c-20.3,0-32.5,930.3-32.5,2070V644.6l154.2,32.6
		c608.8,139.6,2345.8,521,2374.2,525.6C5642,1202.8,5654.2,351.6,5654.2-699.7z M1859.6,793.5l1176.9-120.9l12.2-2084
		c8.1-1972.3,4.1-2084-60.9-2060.7C2833.6-3421,394.5-2602.3,329.6-2579c-69,23.3-73.1,148.9-73.1,1790.9v1763L471.6,947
		C585.3,933,1214.3,863.2,1859.6,793.5z"/>
	<path class="st0" d="M3990.3,207.4c-64.9-93,0-190.7,194.8-283.8c77.1-37.2,133.9-79.1,121.8-88.4c-12.2-14-73.1,4.7-138,46.5
		c-259.7,153.5-629.1,18.6-811.7-302.4c-93.3-162.8-113.6-255.8-129.9-576.8c-20.3-460.5,48.7-786.1,239.4-1116.4
		c235.4-404.7,487-493.1,787.3-283.8c133.9,93,194.8,111.6,365.3,88.4c263.8-32.6,397.7,65.1,608.8,423.3
		c239.4,414,345,809.4,345,1293.2c0,441.9-52.8,623.3-211,748.9c-178.6,144.2-596.6,37.2-779.2-200c-44.6-51.2-89.3-97.7-109.6-97.7
		c-16.2,0-113.6,93-215.1,209.3c-105.5,116.3-194.8,209.3-202.9,209.3S4018.7,244.6,3990.3,207.4z"/>
	<path class="st0" d="M703,360.9c0-32.6,60.9-93,133.9-130.2l129.9-69.8l12.2-1111.8c12.2-1176.9,0-1237.4-178.6-1237.4
		c-56.8,0-97.4-27.9-97.4-65.1c0-41.9,129.9-83.7,438.3-139.6c239.4-46.5,478.9-93,527.6-107c158.3-41.9,93.3,130.2-73.1,190.7
		l-142,51.2l-12.2,497.7l-12.2,493.1l174.5-46.5c223.2-60.5,592.5-23.3,754.9,74.4c349,204.7,332.8,851.3-24.4,1190.8
		c-186.7,176.8-405.8,260.5-986.2,372.1C804.4,430.6,703,435.3,703,360.9z M1851.5-57.8c186.7-107,312.5-330.3,312.5-548.9
		c0-367.5-190.7-539.6-531.7-488.4l-198.9,32.6v576.8V91.1l133.9-32.6C1636.4,44.5,1766.3-6.6,1851.5-57.8z"/>
</g>
</svg>
