<?xml version="1.0" encoding="utf-8"?>
<!-- Generator: Adobe Illustrator 19.2.1, SVG Export Plug-In . SVG Version: 6.00 Build 0)  -->
<svg version="1.1" id="Capa_1" xmlns="http://www.w3.org/2000/svg" xmlns:xlink="http://www.w3.org/1999/xlink" x="0px" y="0px"
	 viewBox="0 0 500 500" style="enable-background:new 0 0 500 500;" xml:space="preserve">
<style type="text/css">
	.st0{fill:#21395A;}
</style>
<g>
	<g id="Layer_1_120_">
		<g>
			<g>
				<path class="st0" d="M336,89.7c-1.2-1.3-2.6-2.3-4.1-2.9l-93.5-33.7c-37.4-13.5-61.7,10-68.2,17.6c-3.8,4.4-6.7,9-8.2,13
					l-41.6,112.4c-2.4,6.4-1.6,15,2.2,23.6c5.4,12.2,15,21,26.5,24.2c12.9,3.6,26.3-1.3,36.8-13.3c2.7-3.1,5.1-6.6,6.4-9.6l14-29.8
					c2.3-4.9,5.6-10.1,9.2-14.1c12-13.8,17.7-7.5,20.1-4.8c20.9,23.2,130.7,149.8,130.7,149.8c3.9,4.5,3.1,13-1.8,18.6
					c-4.9,5.6-12.3,6.5-16.2,2.1l-30.8-35.4c-4-4.6-10.4-4.6-14.4,0c-4,4.5-4,11.9,0,16.5l30.8,35.4c3.9,4.5,3.1,13-1.8,18.5
					c-4.9,5.6-12.3,6.5-16.2,2.1l-30.9-35.4c-4-4.6-10.4-4.6-14.4,0c-4,4.5-4,11.9,0,16.5l30.8,35.4c3.9,4.5,3.1,13-1.8,18.6
					c-4.9,5.6-12.3,6.5-16.2,2.1l-30.8-35.4c-4-4.6-10.4-4.6-14.4,0c-4,4.6-4,12,0,16.5l30.8,35.4c3.9,4.5,3.1,13-1.8,18.6
					c-4.9,5.6-12.3,6.5-16.2,2.1l-37.6-43.2c5.4-9.3,3.9-22.7-4.1-31.9c-8.9-10.2-22.6-11.2-30.6-2c7.9-9.1,7.2-24.8-1.8-35.1
					c-8.9-10.2-22.6-11.2-30.6-2.1c7.9-9.1,7.1-24.8-1.8-35.1c-8.9-10.3-22.6-11.2-30.6-2.1c8-9.1,7.1-24.8-1.8-35.1
					c-8.4-9.6-20.8-10.9-28.9-3.6l-60.8-69.8c-4-4.6-10.4-4.6-14.4,0c-4,4.5-4,11.9,0,16.5l60.7,69.6l-18,20.6
					c-7.9,9.1-7.1,24.8,1.8,35.1c8.9,10.2,22.6,11.2,30.5,2.1c-7.9,9.1-7.1,24.8,1.8,35.1c8.9,10.2,22.6,11.2,30.6,2.1
					c-7.9,9.1-7.1,24.8,1.8,35.1c8.9,10.3,22.6,11.2,30.6,2.1c-7.9,9.1-7.1,24.8,1.8,35.1c8.9,10.2,22.6,11.2,30.6,2.1l19-21.8
					l37.3,42.8c11.9,13.7,32,12.7,44.9-2.1c6.3-7.2,9.6-16.4,10.1-25.5c7.9-0.5,16-4.4,22.2-11.6c6.3-7.2,9.7-16.4,10.1-25.5
					c7.9-0.5,15.9-4.4,22.2-11.6c6.3-7.2,9.6-16.4,10.1-25.5c7.9-0.5,16-4.4,22.3-11.6c12.9-14.8,13.7-37.9,1.8-51.6l-15.7-18.1
					l64.6-74.1c4-4.5,4-11.9,0-16.5L336,89.7z"/>
			</g>
			<g>
				<path class="st0" d="M489.1,115.8l-82.3-94.5c-7.9-9.1-20.8-9.1-28.8,0l-28.8,33c-7.9,9.1-7.9,23.9,0,33l82.3,94.5
					c7.9,9.1,20.8,9.1,28.8,0l28.8-33C497,139.7,497,124.9,489.1,115.8z M445.9,163.9c-9.2,0-16.7-8.6-16.7-19.2s7.5-19.2,16.7-19.2
					c9.2,0,16.7,8.6,16.7,19.2C462.6,155.3,455.1,163.9,445.9,163.9z"/>
			</g>
		</g>
	</g>
</g>
</svg>
