<?xml version="1.0" encoding="utf-8"?>
<!-- Generator: Adobe Illustrator 19.2.1, SVG Export Plug-In . SVG Version: 6.00 Build 0)  -->
<svg version="1.1" id="Layer_1" xmlns="http://www.w3.org/2000/svg" xmlns:xlink="http://www.w3.org/1999/xlink" x="0px" y="0px"
	 viewBox="0 0 500 500" style="enable-background:new 0 0 500 500;" xml:space="preserve">
<style type="text/css">
	.st0{fill:#21395A;}
</style>
<g>
	<polygon class="st0" points="121.9,375.8 88.7,382.3 31.8,471.8 52.4,494.6 140.9,436 145.6,401.8 206.5,339 181.4,313 	"/>
	<path class="st0" d="M480.8,59.3c-12.1-10.4-54-11.4-65.1,0L302.3,180.8l62.4,61.3l115.1-119.4C489.3,111.3,492.9,69.7,480.8,59.3z
		"/>
	<path class="st0" d="M228.7,156.4l1.1-46.5c-3.1-29.3-9.1-49.7-28-69.2c-15.8-16.3-34.8-26-55.3-30.9c-23.7-4.9-44.3-1.6-63.2,6.5
		l63.2,66.7c11.1,14.6,17.9,29,6.8,42l-26.8,25c-12.7,14.6-29.1,11.2-43.3-3.5L22.5,89.8c-6.4,22.8-10.5,33.8-4.1,56.6
		c4.7,21.2,12.6,40.7,28.4,55.3c15.8,17.9,35.5,22.7,59.2,26c11.1,1.6,30.7,1.8,40.2,0.1l241,240.2c66.1,39.7,103.7-39.7,78.6-67.7
		L228.7,156.4z M409.4,449.6c-19.7,0-35.7-16.4-35.7-36.6c0-20.2,16-36.6,35.7-36.6c19.7,0,35.7,16.4,35.7,36.6
		C445.1,433.2,429.1,449.6,409.4,449.6z"/>
</g>
</svg>
