<?xml version="1.0" encoding="utf-8"?>
<!-- Generator: Adobe Illustrator 19.2.1, SVG Export Plug-In . SVG Version: 6.00 Build 0)  -->
<svg version="1.1" id="Capa_1" xmlns="http://www.w3.org/2000/svg" xmlns:xlink="http://www.w3.org/1999/xlink" x="0px" y="0px"
	 viewBox="0 0 600 600" style="enable-background:new 0 0 600 600;" xml:space="preserve">
<style type="text/css">
	.st0{fill:#02365B;}
</style>
<g>
	<g>
		<g>
			<path class="st0" d="M302.1,144.4c-35.3,0-78.5,5.2-121.6,18.3c-2.2,9.7-3.2,19.2-3.2,29.4c0,72,55.9,130.8,124.8,130.8
				S426.9,264,426.9,191.6c0-10.2-0.9-19.7-3.2-29.4C384.7,149.9,337.3,144.2,302.1,144.4z"/>
			<path class="st0" d="M590.7,544.4c-16.1-110.6-88.5-201.8-185.3-240.4c-26.6,27-62.9,43.6-102.8,43.6s-76.1-16.5-102.8-43.6
				C102.5,342.5,30,433.8,13.5,544.4c-3.7,24.8,14.6,46.7,38.1,46.7h500.6C576.1,591.2,594.3,569.1,590.7,544.4z"/>
			<path class="st0" d="M413.6,134.2c8.3-34.5,17-68.8,25.3-103.3c-89.6-23.8-184-23.8-273.5,0.5c8.3,34.5,17,68.8,25.3,103.3
				C263.5,114.5,340.7,114.5,413.6,134.2z M281.4,52.1h9.2v-9.2c0-6.8,5.1-12.4,11.9-12.4c6.4,0,11.9,5.5,11.9,12.4v9.7h9.2
				c6.4,0,11.9,5.5,11.9,12.4c0,6.8-5.1,12.4-11.9,12.4h-9.2v9.2c0,6.8-5.1,12.4-11.9,12.4c-6.4,0-11.9-5.5-11.9-12.4v-9.7h-9.2
				c-6.4,0-11.9-5.5-11.9-12.4S275.1,52.1,281.4,52.1z"/>
		</g>
	</g>
</g>
</svg>
