<?xml version="1.0" encoding="utf-8"?>
<!-- Generator: Adobe Illustrator 19.2.1, SVG Export Plug-In . SVG Version: 6.00 Build 0)  -->
<svg version="1.1" id="Layer_1" xmlns="http://www.w3.org/2000/svg" xmlns:xlink="http://www.w3.org/1999/xlink" x="0px" y="0px"
	 viewBox="0 0 500 500" style="enable-background:new 0 0 500 500;" xml:space="preserve">
<style type="text/css">
	.st0{fill:#21395A;}
</style>
<ellipse transform="matrix(0.2279 -0.9737 0.9737 0.2279 120.8498 251.9839)" class="st0" cx="219.3" cy="49.8" rx="41.2" ry="41.2"/>
<path class="st0" d="M150.2,121.7l21.3-2.5c-0.1,0.4-0.2,0.8-0.3,1.2l-20.5,88.4l0.1,0l-1.8,7l0,0l-0.3,1.4l-0.7,2.7l0.1,0
	l-11.4,48.6l-30.6,13l11,25.9l43.7-18.6l0,0l12-51.1l26.6,32.5l-10,39.8h36.2l12.2-48.4l0,0l0,0L211.3,230l1.4-5.6l0.1,0l14.3-61.6
	l7.7,11.4l0,0l0,0l38.7,9.1l32.5-23.6l-47.4-11.1L235,113.5l-8.6-13l-36.9-8.6l-48,5.7l0,0l0,0l-31.3,36.8l16.9,14.4L150.2,121.7z"
	/>
<polygon class="st0" points="373,219.8 373,274.3 252.4,274.3 252.4,328.9 131.7,328.9 131.7,383.4 11.1,383.4 11.1,492.5 
	131.7,492.5 131.7,438 252.4,438 252.4,383.4 373,383.4 373,328.9 493.7,328.9 493.7,219.8 "/>
</svg>
