<?xml version="1.0" encoding="utf-8"?>
<!-- Generator: Adobe Illustrator 19.2.1, SVG Export Plug-In . SVG Version: 6.00 Build 0)  -->
<svg version="1.1" id="Layer_1" xmlns="http://www.w3.org/2000/svg" xmlns:xlink="http://www.w3.org/1999/xlink" x="0px" y="0px"
	 viewBox="0 0 500 500" style="enable-background:new 0 0 500 500;" xml:space="preserve">
<style type="text/css">
	.st0{fill:#21395A;}
</style>
<g>
	<path class="st0" d="M297,309.5h-6.9l-25.3,126.4l-7.3-79.8c-1.2,0.4-2.5,0.6-3.8,0.6h-9c-1.4,0-2.7-0.3-3.9-0.7l-8.1,82.2
		l-29.9-128.8h-4.4c-30.7,0-55.5,30.8-55.5,68.8v112h209.6v-112C352.5,340.3,327.6,309.5,297,309.5z"/>
	<path class="st0" d="M193.2,214.7c8.4,34.6,26.7,68.5,56.8,68.5c30.2,0,45.6-34,52.2-68.6c4.8-1.1,9.3-9.7,10.4-20.7
		c1.3-11.7-1.6-21.8-6.5-23.7c-0.7-40.6-26.9-70.1-59.1-70.1c-32.3,0-58.4,29.5-59.1,70.1c-4.8,1.9-7.7,12-6.5,23.7
		C182.7,206,187.9,215.1,193.2,214.7z"/>
	<path class="st0" d="M246.3,296.9c-5.8,0-10.5,6-10.5,13.4v12.5c0,7.4,4.7,13.4,10.5,13.4h5.9c5.8,0,10.5-6,10.5-13.4v-12.5
		c0-7.4-4.7-13.4-10.5-13.4H246.3z"/>
	<line class="st0" x1="234.6" y1="47.8" x2="259.4" y2="47.8"/>
	<path class="st0" d="M86.2,116.5h-3.5L60,172.3l-22.4-55.9h-2.3c-15.8,0-28.6,14.3-28.6,32.1v70.1h108.1v-70.1
		C114.8,130.8,102,116.5,86.2,116.5z"/>
	<path class="st0" d="M33,67.7c4.3,18.4,13.7,36.5,29.3,36.5c15.6,0,23.5-18.1,26.9-36.6c2.5-0.6,4.8-5.1,5.4-11
		c0.7-6.2-0.8-11.6-3.3-12.6C90.9,22.4,77.4,6.7,60.8,6.7C44.1,6.7,30.6,22.4,30.3,44c-2.5,1-4,6.4-3.3,12.6
		C27.6,63,30.3,67.9,33,67.7z"/>
	<path class="st0" d="M466.2,114.2h-3.5L440,168.9l-22.4-54.7h-2.3c-15.8,0-28.6,14-28.6,31.4v68.6h108.1v-68.6
		C494.8,128.3,482,114.2,466.2,114.2z"/>
	<path class="st0" d="M413,66.4c4.3,18,13.7,35.8,29.3,35.8c15.6,0,23.5-17.8,26.9-35.8c2.5-0.6,4.8-5,5.4-10.8
		c0.6-6.1-0.8-11.4-3.3-12.4c-0.4-21.2-13.9-36.6-30.5-36.6c-16.6,0-30.1,15.4-30.5,36.6c-2.5,1-4,6.3-3.3,12.4
		C407.6,61.9,410.3,66.6,413,66.4z"/>
	<path class="st0" d="M165.9,150.4H132v19.8h31.7C164.4,163.6,165.1,157,165.9,150.4z"/>
	<path class="st0" d="M163,299.4l-30.9-69v36.9l19.6,43.8C155.3,306.9,159.1,303.1,163,299.4z"/>
	<path class="st0" d="M327.9,150.4c1.2,6.6,2.4,13.2,3.6,19.8H373c0.2-4.1,0-19.8,0-19.8H327.9z"/>
	<path class="st0" d="M345.5,318.8l27.4-57.1v-35.2l-38.5,80.2C339.6,313.6,342,314.3,345.5,318.8z"/>
</g>
</svg>
