<?xml version="1.0" encoding="utf-8"?>
<!-- Generator: Adobe Illustrator 22.0.1, SVG Export Plug-In . SVG Version: 6.00 Build 0)  -->
<svg version="1.1" id="Layer_1" xmlns="http://www.w3.org/2000/svg" xmlns:xlink="http://www.w3.org/1999/xlink" x="0px" y="0px"
	 viewBox="0 0 456 456" style="enable-background:new 0 0 456 456;" xml:space="preserve">
<style type="text/css">
	.st0{fill:#153658;}
</style>
<path class="st0" d="M12.5,164.3l24.3,14.3c5.9-5,13.1-8.2,20.8-9.1l171.8-21.1c4.4-0.5,8.4,2.6,8.9,7c0.5,4.4-2.6,8.4-7,8.9
	L59.5,185.3c-2.6,0.3-5.1,1.1-7.4,2.2l178.1,105l217.7-128.3L230.2,36L12.5,164.3z"/>
<path class="st0" d="M226.1,308.7L70.3,216.9v83.2c0,22,19,43.4,52.2,58.7c34,14.6,70.7,21.8,107.7,21.2c37,0.6,73.7-6.7,107.7-21.2
	c33.2-15.3,52.2-36.7,52.2-58.7v-83.2l-155.8,91.8C231.7,310.2,228.6,310.2,226.1,308.7z"/>
<path class="st0" d="M54.3,364.1c0-10.1-6.4-19.2-16-22.5V209.1c0-3.4,0.8-6.7,2.2-9.7c2.3-5.2,6.4-9.3,11.4-11.8l-15.2-9
	c-4.1,3.5-7.5,7.8-9.9,12.7c-2.8,5.5-4.3,11.6-4.4,17.9v132.5c-11.5,4.1-18,16.1-15.3,28c2.8,11.9,14,19.8,26.1,18.4
	C45.2,386.5,54.4,376.3,54.3,364.1z"/>
</svg>
