<?xml version="1.0" encoding="utf-8"?>
<!-- Generator: Adobe Illustrator 19.2.1, SVG Export Plug-In . SVG Version: 6.00 Build 0)  -->
<svg version="1.1" id="Layer_1" xmlns="http://www.w3.org/2000/svg" xmlns:xlink="http://www.w3.org/1999/xlink" x="0px" y="0px"
	 viewBox="0 0 500 500" style="enable-background:new 0 0 500 500;" xml:space="preserve">
<style type="text/css">
	.st0{fill:#FFFFFF;}
	.st1{fill:#21395A;}
</style>
<line class="st0" x1="-63" y1="53.9" x2="-63" y2="230.8"/>
<g>
	<g>
		<path class="st1" d="M250.1,330.6c69,0,124.9-42,124.9-93.8V102.7c0-51.8-55.9-93.8-124.9-93.8c-69,0-124.9,42-124.9,93.8v134.1
			C125.2,288.6,181.1,330.6,250.1,330.6z"/>
	</g>
	<g>
		<path class="st1" d="M468.2,183.1c-10.9,0-19.7,6-19.7,13.4v40.2c0,73.9-88.5,134.1-197.3,134.1c-108.8,0-197.3-60.1-197.3-134.1
			v-40.2c0-7.4-8.8-13.4-19.7-13.4c-10.9,0-19.7,6-19.7,13.4v40.2c0,84.2,95.7,153.3,217,160.2v40.9h-27.6
			c-17.4,0-31.6,12-31.6,26.8c0,14.8,14.1,26.8,31.6,26.8h94.7c17.4,0,31.6-12,31.6-26.8c0-14.8-14.1-26.8-31.6-26.8h-27.6v-40.9
			c121.3-6.8,217-76,217-160.2v-40.2C487.9,189.1,479.1,183.1,468.2,183.1z"/>
	</g>
</g>
</svg>
