<?xml version="1.0" encoding="utf-8"?>
<!-- Generator: Adobe Illustrator 19.2.1, SVG Export Plug-In . SVG Version: 6.00 Build 0)  -->
<svg version="1.1" id="Layer_1" xmlns="http://www.w3.org/2000/svg" xmlns:xlink="http://www.w3.org/1999/xlink" x="0px" y="0px"
	 viewBox="0 0 500 500" style="enable-background:new 0 0 500 500;" xml:space="preserve">
<style type="text/css">
	.st0{fill:#21395A;}
</style>
<g>
	<path class="st0" d="M316.8,413.1l1.3,1.4l-1.3,0.2v32.1H43.7V49.2h273.1v66.9l13.4-16.5l6-7.4l6.1-7.5l7.3-9V30.3
		c0-10.4-7.3-18.9-16.4-18.9H27.3c-9,0-16.4,8.4-16.4,18.9v435.3c0,10.4,7.3,18.9,16.4,18.9h305.8c9,0,16.4-8.4,16.4-18.9V335.8
		l-32.8,40.4v36.9H316.8z"/>
	<polygon class="st0" points="188.8,312.2 184.7,408.9 268.2,397.6 	"/>
	<polygon class="st0" points="426,207 343.2,118 201.1,293.1 283.9,382.2 	"/>
	<polygon class="st0" points="357.2,100.8 440,189.8 481.6,138.6 398.8,49.5 	"/>
</g>
</svg>
