<?xml version="1.0" encoding="utf-8"?>
<!-- Generator: Adobe Illustrator 19.2.1, SVG Export Plug-In . SVG Version: 6.00 Build 0)  -->
<svg version="1.1" id="Capa_1" xmlns="http://www.w3.org/2000/svg" xmlns:xlink="http://www.w3.org/1999/xlink" x="0px" y="0px"
	 viewBox="0 0 500 500" style="enable-background:new 0 0 500 500;" xml:space="preserve">
<style type="text/css">
	.st0{fill:#21395A;}
</style>
<path class="st0" d="M469.4,428.8V191.3h-18.4v-30l-27.8-19.4l-27.8,19.4v30h-7v-43.3h-65.5V93.3l-72.4-50.5L178,93.3v54.6h-65.5
	v43.3h-7v-30l-27.8-19.4L50,161.3v30H31.6v237.6H10.5v29.2h480v-29.2H469.4z M73.3,191.3H59v-22.9h14.3V191.3z M82.3,168.3h14.3
	v22.9H82.3V168.3z M110.3,411.5H84.8v-55.1h25.5C110.3,356.4,110.3,411.5,110.3,411.5z M110.3,344.2H84.8v-55.1h25.5
	C110.3,289.1,110.3,344.2,110.3,344.2z M110.3,276.9H84.8v-55.1h25.5C110.3,221.8,110.3,276.9,110.3,276.9z M171.5,411.5H146v-55.1
	h25.5V411.5z M171.5,344.2H146v-55.1h25.5V344.2z M171.5,276.9H146v-55.1h25.5V276.9z M232.6,411.5h-25.5v-55.1h25.5V411.5z
	 M232.6,344.2h-25.5v-55.1h25.5V344.2z M232.6,276.9h-25.5v-55.1h25.5V276.9z M224.5,127.1c0-14.4,11.6-26,26-26
	c14.4,0,26,11.6,26,26c0,14.4-11.6,26-26,26C236.1,153.1,224.5,141.5,224.5,127.1z M293.8,411.5h-25.5v-55.1h25.5V411.5z
	 M293.8,344.2h-25.5v-55.1h25.5V344.2z M293.8,276.9h-25.5v-55.1h25.5V276.9z M355,411.5h-25.5v-55.1H355V411.5z M355,344.2h-25.5
	v-55.1H355V344.2z M355,276.9h-25.5v-55.1H355V276.9z M416.2,411.5h-25.5v-55.1h25.5V411.5z M416.2,344.2h-25.5v-55.1h25.5V344.2z
	 M416.2,276.9h-25.5v-55.1h25.5V276.9z M418.7,191.3h-14.3v-22.9h14.3V191.3z M441.9,191.3h-14.3v-22.9h14.3V191.3z"/>
</svg>
