<?xml version="1.0" encoding="utf-8"?>
<!-- Generator: Adobe Illustrator 19.2.1, SVG Export Plug-In . SVG Version: 6.00 Build 0)  -->
<svg version="1.1" id="Layer_1" xmlns="http://www.w3.org/2000/svg" xmlns:xlink="http://www.w3.org/1999/xlink" x="0px" y="0px"
	 viewBox="0 0 500 500" style="enable-background:new 0 0 500 500;" xml:space="preserve">
<style type="text/css">
	.st0{fill:#21395A;}
</style>
<path class="st0" d="M487.7,120.5c-2.8-5-13.6-3.7-19.1-2.6c-13.9,2.8-18.6,14.1-30.3,20.2c-5,2.6-7.5,6.3-11.7,9.3
	c-7.8,5.7-14.3,12.3-22.7,17.5c-10.2,6.3-19.3,13.6-29.4,20c-2.1,1.3-4.3,2.5-6.7,3.5c-4.3,1.9-9.5,3.2-14.5,2.4
	c-15-2.2-7.8-17.5-5.5-24.4c3.2-9.7,9.3-19.2,11.2-29c1.3-6.8,1.9-13.7,2.6-20.5c0.8-7.6,5.7-20.5,8.4-28.2
	c3.3-9.4,5.5-19.5,7.4-29.1c0.5-2.5,0.6-5,0.3-7.5c-0.5-4.1-2.1-6.6-5.4-10.2c-1.7-1.8-1.8-3-4.7-4.1c-4.7-1.7-7.6-1.2-12.2-0.1
	c-17.7,4.1-17.5,15.8-20.5,27.2c-1.5,5.6-2.9,11.3-4.7,16.9c-3.6,10.9-5.3,22.7-10.8,33.1c-4.3,8.2-8.2,17.1-10.6,25.7
	c-0.6,2.1-1.8,4.2-2.8,6.1c-2.5,4.6-7.5,12.6-12.4,15.3c-1,0.5-2,0.6-3.2,0.4c-5.6-1.2-5.1-8.4-4.9-11.6c0.4-9.9,1-19.7,2.1-29.6
	c1-9.2-0.4-18.9-1.6-28.1c-1.2-9.2-1-18.5-1.7-27.7c-0.3-3.9,0.6-8.2,1-12.1c0.7-7.7,1.3-15.4,1.5-23.1c0.1-3.2-0.5-6.4-2.1-9.3
	c-1-2-3.2-3.3-4.6-5.1c-4-5-11.7-4.7-18.1-2.8c-7.2,2.2-13.4,4-15.5,10.2c-7.8,23-4,46.6-9,69.8c-2.1,9.9,0.3,20.4-0.2,30.4
	c-0.2,5-1.1,35.6-2.5,37.5c-2.1,2.9-8.7,3-12.3,2.1c-6.7-1.6-15.9-12.1-18.5-16.8c-5-9.1-8.7-19.3-12-28.8
	c-2.4-6.9-7.8-13.2-11.1-19.9c-7-14.2-12.2-29.1-18.2-43.6c-1.4-3.5-3.6-6.7-6.9-9.5c-3.2-2.7-6.9-4.1-11.4-5.1
	c-0.7-0.2-1.7-0.9-2.6-1.1c-5.1-1.6-10.2-1-13.7,2.3c-8.5,7.9-9.9,16.5-7.1,26.3c4.7,16.3,14.2,31.8,17.8,48.3
	c2.8,12.8,9,25,13.8,37.5c3.9,10.2,13,41.2,12.6,50.9c-0.5,13.9-4.3,30-14.4,41.9c-2.8,0.5-5.8,0.7-8.6,0.4
	c-9.7-1.1-15.5-5-22.7-9.1c-14.1-8-29.9-19.9-43.5-28.9c-10.5-6.9-26.6-12-40.8-12.4c-5.9-0.1-20.5,0.5-20.4,7.2
	c-1.4,0.4-2.7,0.8-3.8,1.6c5.6,7.3,15.7,14.7,24.7,19.6c3.4,3.1,7.3,6,10.7,9.2c1.3,1.2,2.5,2.4,3.5,3.7c3.1,4.2,8.3,7.9,12.4,11.5
	c8.8,7.9,16.9,16.4,24.8,24.7c10.7,11.4,17.4,24.5,27.5,36.1c4.1,4.8,10,9.1,15.2,13.2c12.6,10,41,29.9,49.7,40.3
	c7.7,9.2,27,42.4,29.9,52.8c2.5,8.9,2.7,18.5,3.9,27.5c1.9,15.1,4.4,30.1,7.4,45.1c0.4,2.2,0.8,4.4,1.2,6.6h157.4
	c-3-13.1-6-26.1-9-39.2c-1.8-8-3.6-15.9-5.3-23.9c-5.3-7.3-10.7-14.7-16.9-21.6c-5.5-6.2-10.8-12.5-15.8-18.8c-3-3.8-5.8-8-9.4-11.6
	c-4.2-4.2-21.9-16-27.9-18.9c-6.8-3.3-24.9-7.9-33.2-10.4c-3.5-1-7.2-2.1-10.4-3.6c-7.7-3.6-14.3-8.4-22.2-11.9
	c-5.8-2.5-11.8-5.1-17.8-7.2c-2.8-1-6.1-1.9-8.7-3.3c-0.8-0.4-1.7-0.8-2.6-1.1c-2.4-0.9-4.9-1.6-7.3-2.5c-5.3-0.9-9.8-2-14.3-4.4
	c0.3-0.5-1.3-1.5-0.8-1.9c-1.9-3,4.4-5.4,7-6.2c6.4-2,14.9-2.1,21.5-0.6c8.5,1.9,18.8,4.9,27.2,6.3c4.3,0.7,8,1.6,12.6,0.6
	c1.4-0.3,2.6-0.8,3.7-1.5c1.2-6.8-1.7-14.4-5.3-20.6c-2.5-4.3-14.5-19-18.1-23.4c-4.5-5.4-9.6-10.5-13.2-16.2
	c-4.7-7.4-11.9-13.7-17.1-20.9c-3.1-4.3-4-8.5-1.4-13c1.1-1.9,3.3-2.6,6-2.4c0.4,0,1,0.3,1.4,0.3c2.3,0,4.3,0.3,6.3,1.3
	c2,1,3.6,2.3,4.9,3.8c5.4,6.2,10.5,12.7,16.4,18.7c2.8,2.8,6.4,5.2,8.8,8.2c3.3,4.1,7.3,8.3,11.3,12c2.1,2,6.2,6.9,9.6,7
	c1.9,0.1,4.9-1.5,5.4-3c0.3-1-9.5-16.2-10.7-18.5c-2.6-4.5-6.6-8.8-8.4-13.5c-4.3-11-12.5-20.9-15.5-32.2c-0.8-3,1.4-4.8,4-6.8
	c2.3-1.8,5.6-3.1,8.8-1.5c1.1,0.6,2.4,0.8,3.4,1.6c1.5,1.1,2.7,2.4,3.5,3.8c2,3.4,3.9,6.9,5.8,10.4c0.9,1.8,1.7,3.8,2.9,5.5
	c2.9,4,5.4,8.1,8.5,12c3.1,3.9,6.4,8,8.5,12.2c2.3,4.5,4.7,9,7.3,13.4c0.8,1.5,2.6,4.7,5.4,4.4c0.6-0.1,1-0.3,1.3-0.6
	c1.4-1.9,1.4-6.2,1.2-8.6c-0.1-1-0.1-2.1-0.5-3.1c-1.3-4.2-2.1-8.7-2.5-12.9c-0.5-5.4-3-10.9-4.5-16.2c-0.7-2.7-1.7-5.5-2.6-8.2
	c-1.8-5.5-5.2-10.6,1.5-15.1c1.8-1.2,2.9-1.9,5.4-1.8c1.6,0,2,0.6,3.2,1.1c2.4,1.1,3.9,2,5.2,3.7c0.8,1.1,1.5,2.2,2,3.4
	c1.8,4.5,3.7,9.3,4.8,14c0.9,3.8,2.4,10.3,4.1,13.7c1.6,3.1,3.3,6.2,4.6,9.5c1.9,4.6,1.8,9.7,3.1,14.5c0.9,3.4,3.8,10.1,6.9,9
	c1.2-0.4,2-1.7,2.1-2.6c0.5-4.7,0.2-9.6,0.8-14.3c0.5-3.9-0.4-7.8-0.4-11.8c0-2.1-0.8-4-0.3-6.2c1.1-5-2.5-9.8,1-14.2
	c1.4-1.8,5-5.5,8.3-4.4c2.1,0.7,3.5,2.9,4.3,4.1c1.8,2.8,3.2,5.3,3.9,8.6c0.9,4.1,0.5,8.4,1.2,12.5c0.6,3.7,1.9,7.5,2.8,11.2
	c1.4,5.9,0.8,13,2.7,18.6c2.1,6.4,3.4,17,6.1,23.4c3,7.1,6.1,14.5,7.4,21.9c0.4,2.7,0.6,5.9,0.8,9.1c2.7-4.9,5.3-9.6,7.2-13.9
	c6.4-14.6,9.3-30.4,12-45.6c2.4-13.7,10.8-26.2,20.4-37.8c8.4-10.2,23.3-19.9,32.9-30c6-6.4,11.6-13.1,18-19.3
	c7.2-6.8,16.1-12.4,23-19.4c5.4-5.5,5.6-10.7,8.5-16.7C485.4,128.7,489.5,123.7,487.7,120.5z"/>
</svg>
