<?xml version="1.0" encoding="utf-8"?>
<!-- Generator: Adobe Illustrator 19.2.1, SVG Export Plug-In . SVG Version: 6.00 Build 0)  -->
<svg version="1.1" id="Layer_1" xmlns="http://www.w3.org/2000/svg" xmlns:xlink="http://www.w3.org/1999/xlink" x="0px" y="0px"
	 viewBox="0 0 502 500" style="enable-background:new 0 0 502 500;" xml:space="preserve">
<style type="text/css">
	.st0{fill:#21395A;}
</style>
<g>
	<g>
		<g>
			<path class="st0" d="M120.8,173.5H61.1c-3.8,0-7.2,2.1-8.9,5.5l-39.8,79.6c0,0.1,0,0.2-0.1,0.3c-0.6,1.3-1,2.7-1,4.2v179.2
				c0,5.5,4.5,10,10,10h99.5c5.5,0,10-4.5,10-10V183.5C130.8,178,126.3,173.5,120.8,173.5z M110.9,382.5c0,5.5-4.5,10-10,10H41.2
				c-5.5,0-10-4.5-10-10v-59.7c0-5.5,4.5-10,10-10h59.7c5.5,0,10,4.5,10,10V382.5z"/>
			<path class="st0" d="M260.2,229.1v-15.8c0-5.5-4.5-10-10-10s-10,4.5-10,10v19.9c0,2.6,1.1,5.2,2.9,7l10,10c2,2,4.5,2.9,7,2.9
				c2.5,0,5.1-1,7-2.9c3.9-3.9,3.9-10.2,0-14.1L260.2,229.1z"/>
			<path class="st0" d="M359.7,472.1h-10V153.6h10c3.9,0,7.5-2.3,9.1-6c1.6-3.6,0.9-7.8-1.8-10.7L257.5,17.5
				c-3.8-4.1-10.9-4.1-14.7,0L133.4,136.9c-2.7,2.9-3.4,7.1-1.8,10.7c1.6,3.6,5.2,6,9.1,6h10v318.5h-10c-5.5,0-10,4.5-10,10
				s4.5,10,10,10h219c5.5,0,10-4.5,10-10S365.2,472.1,359.7,472.1z M290,472.1h-79.6v-89.6c0-5.5,4.5-10,10-10h59.7
				c5.5,0,10,4.5,10,10L290,472.1L290,472.1z M250.2,292.9c-32.9,0-59.7-26.8-59.7-59.7s26.8-59.7,59.7-59.7s59.7,26.8,59.7,59.7
				S283.1,292.9,250.2,292.9z"/>
			<path class="st0" d="M488.1,258.9c0-0.1,0-0.2-0.1-0.3L448.2,179c-1.7-3.4-5.1-5.5-8.9-5.5h-59.7c-5.5,0-10,4.5-10,10v258.8
				c0,5.5,4.5,10,10,10h99.5c5.5,0,10-4.5,10-10V263.1C489.1,261.6,488.7,260.2,488.1,258.9z M469.2,382.5c0,5.5-4.5,10-10,10h-59.7
				c-5.5,0-10-4.5-10-10v-59.7c0-5.5,4.5-10,10-10h59.7c5.5,0,10,4.5,10,10V382.5z"/>
		</g>
	</g>
</g>
</svg>
