<?xml version="1.0" encoding="utf-8"?>
<!-- Generator: Adobe Illustrator 19.2.1, SVG Export Plug-In . SVG Version: 6.00 Build 0)  -->
<svg version="1.1" id="Layer_1" xmlns="http://www.w3.org/2000/svg" xmlns:xlink="http://www.w3.org/1999/xlink" x="0px" y="0px"
	 viewBox="0 0 500 500" style="enable-background:new 0 0 500 500;" xml:space="preserve">
<style type="text/css">
	.st0{fill:#21395A;}
</style>
<g>
	<polygon class="st0" points="486.2,303.1 306.1,8.1 33.7,78.7 193.9,396.8 	"/>
	<polygon class="st0" points="16.3,89.8 9.3,136.5 187.8,484.5 187,416.6 	"/>
	<polygon class="st0" points="490.1,384.9 486.8,373.9 288.3,438.6 286.7,423.1 477.2,364.7 476,360.3 286.2,418.5 285,406.8 
		475,348.5 473.8,344.1 206.4,426.1 207.6,430.5 244.3,419.3 246.1,430.8 208.6,442.2 209.9,446.7 246.8,435.4 249.3,451.4 
		186.1,472 189.4,483 253.8,462 276.1,493.7 292.8,475.5 319.1,472.9 296.9,447.9 	"/>
	<polygon class="st0" points="205.1,413.3 472.4,331.4 471.2,326.9 203.8,408.9 	"/>
</g>
</svg>
