<?xml version="1.0" encoding="utf-8"?>
<!-- Generator: Adobe Illustrator 19.2.1, SVG Export Plug-In . SVG Version: 6.00 Build 0)  -->
<svg version="1.1" id="Capa_1" xmlns="http://www.w3.org/2000/svg" xmlns:xlink="http://www.w3.org/1999/xlink" x="0px" y="0px"
	 viewBox="0 0 600 600" style="enable-background:new 0 0 600 600;" xml:space="preserve">
<style type="text/css">
	.st0{fill:#223A59;}
</style>
<g>
	<g>
		<circle class="st0" cx="299.6" cy="130.7" r="124.7"/>
		<path class="st0" d="M352.6,264H246.7C158.7,264,87,335.6,87,423.7v129.5l0.3,2l8.9,2.8c84,26.3,157.1,35,217.2,35
			c117.4,0,185.4-33.5,189.6-35.6l8.3-4.2h0.9V423.7C512.3,335.6,440.6,264,352.6,264z M324.3,515.2l-22.8,33.4
			c-0.3,0.5-0.8,0.7-1.3,0.7c0,0,0,0,0,0c-0.5,0-1.1-0.3-1.3-0.8l-21.2-33.4c-0.2-0.3-0.3-0.6-0.3-1l10.6-162.3
			c0.1-0.9,0.8-1.5,1.6-1.5h22c0.9,0,1.6,0.7,1.6,1.5l11.4,162.3C324.6,514.6,324.5,514.9,324.3,515.2z M314,345.5h-26.2l-22.8-47
			c0-4.5,3.7-8.2,8.2-8.2h54.7c4.5,0,8.2,3.6,8.2,8.2L314,345.5z"/>
	</g>
</g>
</svg>
