<?xml version="1.0" encoding="utf-8"?>
<!-- Generator: Adobe Illustrator 19.2.1, SVG Export Plug-In . SVG Version: 6.00 Build 0)  -->
<svg version="1.1" id="Layer_1" xmlns="http://www.w3.org/2000/svg" xmlns:xlink="http://www.w3.org/1999/xlink" x="0px" y="0px"
	 viewBox="0 0 500 500" style="enable-background:new 0 0 500 500;" xml:space="preserve">
<style type="text/css">
	.st0{fill:#21395A;}
</style>
<g>
	<g>
		<g>
			<path class="st0" d="M457.2,379.4c0,4-4.5,7.3-10.1,7.3H80.4c-18.8,0-33.6-13.3-33.6-30.4V334c0-17,5.1-37,24-37h366.8
				c5.6,0,19.7,9.9,19.7,14c0,4-4.5,7.3-10.1,7.3H80.4c-6.4,0-13.5,6.5-13.5,15.8v22.3c0,9.3,7.1,15.8,13.5,15.8h366.8
				C452.7,372.1,457.2,375.4,457.2,379.4z"/>
			<path class="st0" d="M428.8,334.2c0,4-4.5,7.3-10.1,7.3H91.4c-5.6,0-10.1-3.3-10.1-7.3c0-4,4.5-7.3,10.1-7.3h327.4
				C424.3,326.9,428.8,330.2,428.8,334.2z"/>
			<path class="st0" d="M428.8,356.1c0,4-4.5,7.3-10.1,7.3H91.4c-5.6,0-10.1-3.3-10.1-7.3c0-4,4.5-7.3,10.1-7.3h327.4
				C424.3,348.8,428.8,352.1,428.8,356.1z"/>
		</g>
		<g>
			<path class="st0" d="M489,437.6v24.7c0,18.1-16.8,32.8-37.5,32.8H25.1c-5.6,0-10.1-3.3-10.1-7.3c0-4,4.5-7.3,10.1-7.3h426.5
				c9.4,0,17.4-8.4,17.4-18.3v-24.7c0-9.9-7.9-18.2-17.4-18.2H25.1c-5.6,0-10.1-3.3-10.1-7.3c0-4,4.5-7.3,10.1-7.3h426.5
				C472.2,404.7,489,419.4,489,437.6z"/>
			<path class="st0" d="M448.8,437.8c0,4-4.5,7.3-10.1,7.3H58.1c-5.5,0-10.1-3.3-10.1-7.3s4.5-7.3,10.1-7.3h380.7
				C444.3,430.5,448.8,433.8,448.8,437.8z"/>
			<path class="st0" d="M448.8,462c0,4-4.5,7.3-10.1,7.3H58.1c-5.5,0-10.1-3.3-10.1-7.3c0-4,4.5-7.3,10.1-7.3h380.7
				C444.3,454.7,448.8,458,448.8,462z"/>
		</g>
		<g>
			<g>
				<g>
					<path class="st0" d="M256.6,91.4c-0.1,0.1-0.1,0.1-0.1,0.2C256.6,91.6,256.6,91.5,256.6,91.4C256.6,91.4,256.6,91.4,256.6,91.4
						z"/>
					<path class="st0" d="M256.6,92.9c-26.9-6.2-45.1-17.4-54.2-33.1c-5.2-8.9-6.9-18.4-6.9-27.1c0-10.2,2.3-19.2,4.2-24.7
						c11.4,2,34.6,8.1,48.6,25.6C259.9,48.3,262.7,68.2,256.6,92.9z"/>
					<path class="st0" d="M392.6,154.7c-4.2-20.7-14-35.4-29-43.9c-23.7-13.3-53.9-7.4-58.1-6.5c-15,5.6-29.1,8-41.9,7.1
						c-12.9,0.8-27-1.7-42-7.3c-4.1-0.9-34.4-7-58.2,6.1c-15.1,8.3-24.9,23.1-29.4,43.7c-3.7,17.2-2.4,36.1,3.7,54.5
						c11.6,35.3,39.9,92.3,99.4,76.8l0.5-0.1c0.2,0,0.4-0.1,0.5-0.1c0.2,0,0.4-0.1,0.5-0.1c0.4-0.1,10.8-2.6,23.3-3.6
						c0.3,0,0.6,0,0.9,0c0.3,0,0.6,0,0.9,0c12.4,1.1,22.8,3.6,23.3,3.7c0.2,0,0.3,0.1,0.5,0.1c0.2,0,0.3,0.1,0.5,0.1l0.4,0.1
						c59.5,15.9,88.3-40.9,100.1-76.1C394.7,190.8,396.1,171.9,392.6,154.7z M363.2,202.5c-1.3,3.6-5,5.9-9,5.9
						c-0.9,0-1.9-0.1-2.8-0.4c-5-1.4-7.7-6.1-6.1-10.5c6.5-18.4,6.1-32.4-1.2-41.8c-9.3-11.9-27.7-13-27.8-13
						c-5.2-0.2-9.2-4.2-9-8.8c0.2-4.6,4.6-8.2,9.8-8c1.1,0.1,27.7,1.3,42.4,20.2C370.3,159.8,371.5,178.8,363.2,202.5z"/>
					<path class="st0" d="M256.6,91.4c-0.1,0.1-0.1,0.1-0.1,0.2C256.6,91.6,256.6,91.5,256.6,91.4C256.6,91.4,256.6,91.4,256.6,91.4
						z"/>
				</g>
			</g>
		</g>
	</g>
</g>
</svg>
