<?xml version="1.0" encoding="utf-8"?>
<!-- Generator: Adobe Illustrator 19.2.1, SVG Export Plug-In . SVG Version: 6.00 Build 0)  -->
<svg version="1.1" id="Capa_1" xmlns="http://www.w3.org/2000/svg" xmlns:xlink="http://www.w3.org/1999/xlink" x="0px" y="0px"
	 viewBox="0 0 600 600" style="enable-background:new 0 0 600 600;" xml:space="preserve">
<style type="text/css">
	.st0{fill:#F1F5F9;}
</style>
<g>
	<path id="Facebook_Places" class="st0" d="M487.8,160.1c-2-7.6-6.1-15.6-9.1-22.7C442.3,50.2,363.1,18.9,299,18.9
		c-85.7,0-180.1,57.5-192.7,175.9V219c0,1,0.3,10.1,0.8,14.6c7.1,56.4,51.6,116.4,84.9,172.9c35.8,60.5,72.9,120,109.7,179.4
		c22.7-38.8,45.3-78.1,67.5-115.9c6-11.1,13.1-22.2,19.1-32.8c4-7.1,11.7-14.1,15.3-20.7C439.4,351.1,497,285.1,497,220v-26.7
		C497,186.3,488.2,161.6,487.8,160.1z M300.6,281.5c-25.2,0-52.8-12.6-66.4-47.4c-2-5.5-1.9-16.6-1.9-17.6v-15.6
		c0-44.3,37.6-64.5,70.4-64.5c40.3,0,71.5,32.3,71.5,72.6C374.3,249.3,340.9,281.5,300.6,281.5z"/>
</g>
</svg>
