<?xml version="1.0" encoding="utf-8"?>
<!-- Generator: Adobe Illustrator 19.2.1, SVG Export Plug-In . SVG Version: 6.00 Build 0)  -->
<svg version="1.1" id="Capa_1" xmlns="http://www.w3.org/2000/svg" xmlns:xlink="http://www.w3.org/1999/xlink" x="0px" y="0px"
	 viewBox="0 0 508.5 508.5" style="enable-background:new 0 0 508.5 508.5;" xml:space="preserve">
<style type="text/css">
	.st0{fill:#DAE1E7;}
</style>
<g>
	<g>
		<path class="st0" d="M254.3,0C113.8,0,0,113.8,0,254.3s113.8,254.3,254.3,254.3s254.3-113.8,254.3-254.3S394.7,0,254.3,0z
			 M254.3,445c-105.1,0-190.7-85.5-190.7-190.7c0-41.1,13.2-79.1,35.4-110.3l265.5,265.6C333.3,431.7,295.4,445,254.3,445z
			 M409.5,364.6L143.9,99c31.2-22.2,69.2-35.4,110.3-35.4c105.2,0,190.7,85.6,190.7,190.7C445,295.4,431.7,333.4,409.5,364.6z"/>
	</g>
</g>
</svg>
