<?xml version="1.0" encoding="utf-8"?>
<!-- Generator: Adobe Illustrator 19.2.1, SVG Export Plug-In . SVG Version: 6.00 Build 0)  -->
<svg version="1.1" id="Capa_1" xmlns="http://www.w3.org/2000/svg" xmlns:xlink="http://www.w3.org/1999/xlink" x="0px" y="0px"
	 viewBox="0 0 600 600" style="enable-background:new 0 0 600 600;" xml:space="preserve">
<style type="text/css">
	.st0{fill:#F1F5F9;}
</style>
<g>
	<path class="st0" d="M407.6,464.6c-68.2,32.1-147.7,32.1-215.9,0c-37.9,31.2-62.1,78.5-62.1,131.4h340.2
		C469.7,543.1,445.5,495.8,407.6,464.6z"/>
	<path class="st0" d="M299.6,464.6c126.9,0,229.8-102.9,229.8-229.8C529.4,107.9,426.5,5,299.6,5S69.8,107.9,69.8,234.8
		C69.8,361.7,172.7,464.6,299.6,464.6z M94.3,223.6c103.6,20.1,206.8-12.5,279.6-80.5c24.1,56.7,69.7,103.2,128.3,127.7
		c-17,96.4-101.2,169.7-202.5,169.7c-113.6,0-205.7-92.1-205.7-205.7C93.9,231,94.1,227.3,94.3,223.6z"/>
	<circle class="st0" cx="206.6" cy="262.5" r="24.3"/>
	<circle class="st0" cx="392.7" cy="262.5" r="24.3"/>
	<path class="st0" d="M299.6,400c21.7,0,41.3-9.2,49.9-23.3c3.4-5.7,1.6-13.1-4.1-16.6c-5.7-3.4-13.1-1.6-16.6,4.1
		c-3.4,5.6-14,11.7-29.2,11.7c-15.2,0-25.8-6-29.2-11.7c-3.4-5.7-10.9-7.5-16.6-4.1c-5.7,3.4-7.5,10.9-4.1,16.6
		C258.3,390.8,277.9,400,299.6,400z"/>
</g>
</svg>
