<?xml version="1.0" encoding="utf-8"?>
<!-- Generator: Adobe Illustrator 19.2.1, SVG Export Plug-In . SVG Version: 6.00 Build 0)  -->
<svg version="1.1" id="Capa_1" xmlns="http://www.w3.org/2000/svg" xmlns:xlink="http://www.w3.org/1999/xlink" x="0px" y="0px"
	 viewBox="0 0 600 600" style="enable-background:new 0 0 600 600;" xml:space="preserve">
<style type="text/css">
	.st0{fill:#F1F5F9;}
</style>
<g>
	<g>
		<path class="st0" d="M514.9,125.4V53.8H13.5v393.9c0,0,0,71.6,71.6,71.6h447.7c0,0,53.7-1.1,53.7-71.6V125.4H514.9z M85.1,483.5
			c-35.8,0-35.8-35.8-35.8-35.8V89.6h429.8v358.1c0,16.5,5.1,27.9,12.1,35.8H85.1z"/>
		<rect x="85.1" y="161.2" class="st0" width="358.1" height="35.8"/>
		<rect x="282.1" y="376.1" class="st0" width="125.3" height="35.8"/>
		<rect x="282.1" y="304.5" class="st0" width="161.2" height="35.8"/>
		<rect x="282.1" y="232.8" class="st0" width="161.2" height="35.8"/>
		<rect x="85.1" y="232.8" class="st0" width="161.2" height="179.1"/>
	</g>
</g>
</svg>
