<?xml version="1.0" encoding="utf-8"?>
<!-- Generator: Adobe Illustrator 19.2.1, SVG Export Plug-In . SVG Version: 6.00 Build 0)  -->
<svg version="1.1" id="Layer_1" xmlns="http://www.w3.org/2000/svg" xmlns:xlink="http://www.w3.org/1999/xlink" x="0px" y="0px"
	 viewBox="0 0 500 500" style="enable-background:new 0 0 500 500;" xml:space="preserve">
<style type="text/css">
	.st0{fill:#F1F5F9;}
</style>
<path class="st0" d="M369.1,119c-16-17-34.6-30.4-55.3-39.7c-21.5-9.7-44.3-14.6-67.8-14.6c-23.5,0-46.3,4.9-67.8,14.6
	c-20.7,9.3-39.3,22.7-55.3,39.7c-16,17-28.5,36.8-37.3,58.9C76.5,200.7,71.9,225,71.9,250c0,25,4.6,49.3,13.7,72.1
	c8.8,22.1,21.3,41.9,37.3,58.9c16,17,34.6,30.4,55.3,39.7c21.5,9.7,44.3,14.6,67.8,14.6c23.5,0,46.3-4.9,67.8-14.6
	c20.7-9.3,39.3-22.7,55.3-39.7c16-17,28.5-36.8,37.3-58.9c9.1-22.9,13.7-47.1,13.7-72.1c0-25-4.6-49.3-13.7-72.1
	C397.6,155.8,385.1,136,369.1,119z M246,378.4c-66.5,0-120.6-57.6-120.6-128.4S179.5,121.6,246,121.6c66.5,0,120.6,57.6,120.6,128.4
	S312.5,378.4,246,378.4z"/>
<ellipse class="st0" cx="246" cy="250" rx="107.5" ry="114.4"/>
<path class="st0" d="M53.5,14.1L50,128.9h-2.2L42.7,14.1l-1.4,0l-4.2,114.8h-2.5L30.5,14.1l-1.3,0L24,128.9h-2.2L18.3,14.1l-1.4,0
	l-7,143.4l0.4,0.3c17.8,10.4,20.6,30.7,20.6,30.8C32.3,327,20.2,487.4,20.1,489h0v0.1c0,4.7,8.1,7.3,15.8,7.3
	c7.7,0,15.8-2.6,15.8-7.3V489c0-0.1,0-0.3,0-0.4c-0.7-8.7-12.1-164.8-10.8-299.9c0-0.2,2.9-20.5,20.6-30.9l0.4-0.3l-7-143.4
	L53.5,14.1z"/>
<path class="st0" d="M476.1,30.5c-1.5-10.1-3.3-15.6-6.3-16.4c-4.4-1.2-10.3,15.2-10.9,16.3c-32.6,90-20.3,206.3-5.6,221.8
	l-12.6,237v0.1c0,4.6,10.4,7.1,20.2,7.1c9.8,0,20.2-2.5,20.2-7.1v0l-6.8-237.6C484.8,72,476.2,31.4,476.1,30.5z"/>
</svg>
