<?xml version="1.0" encoding="utf-8"?>
<!-- Generator: Adobe Illustrator 19.2.1, SVG Export Plug-In . SVG Version: 6.00 Build 0)  -->
<svg version="1.1" id="Layer_1" xmlns="http://www.w3.org/2000/svg" xmlns:xlink="http://www.w3.org/1999/xlink" x="0px" y="0px"
	 viewBox="0 0 500 500" style="enable-background:new 0 0 500 500;" xml:space="preserve">
<style type="text/css">
	.st0{fill:#F1F5F9;}
</style>
<g>
	<g>
		<path class="st0" d="M411.6,138.3H292.3c-8.9,0-16-6-16-13.5V24.5c0-7.4-7.2-13.5-16-13.5h-155c-8.9,0-16,6-16,13.5v344.4
			c0,7.4,7.2,13.5,16,13.5h34.6c-2.6-7.3-4.5-14.7-5.5-22.2c-2.8-22.6-8.7-40.6-13.4-55.1c-5.5-16.8-9.4-28.9-5-38.9
			c0.3-0.8,0.7-1.5,1.1-2.2c5.8-11,15.6-12.6,20.8-12.6c7.9,0,15.3,3.5,21.4,6.9c13,7.2,21.9,18.8,24.6,31.8
			c0.6,2.7,1.2,5.2,1.8,7.5c0.3-42.4,1.7-112.1,7.5-136.5l0.3-1.4l0.7-1.2c9.3-15.9,22.7-18.3,29.8-18.3c13.8,0,25.3,8.2,29.5,16.3
			c1.6,3,2.4,6.2,2.4,9.6l0.6,84.7c4.7-3.2,10.6-5,17.9-5.5c2-0.2,4.1-0.3,6-0.3c14.3,0,23,4.9,27.8,9.1c2.4,2.1,4.3,4.4,5.9,6.7
			c3.9-1.3,8.6-2.3,14.3-2.7l1.1-0.1l1.1,0.1c12.1,0.9,22,5.3,28.6,12.5c4.6,5,7,10.6,8.2,15.9c1.3-0.1,2.5-0.2,3.9-0.2
			c5.6,0,11,1.4,15.5,4.1c15.2,8.9,19.1,33,13.6,83.2c-0.3,3-0.9,5.9-1.6,8.9h12.8c8.9,0,16-6,16-13.5V151.7
			C427.6,144.3,420.4,138.3,411.6,138.3z"/>
	</g>
	<g>
		<path class="st0" d="M300.2,124.8h108.3c7,0,10.6-7.2,5.6-11.3L305.8,22.3c-5-4.2-13.5-1.2-13.5,4.7v91.1
			C292.3,121.8,295.9,124.8,300.2,124.8z"/>
	</g>
	<g>
		<path class="st0" d="M379.5,299c-2.7-1.6-5.5-2.2-8.3-2.2c-8.3,0-16,5.4-16,5.4s6.2-31-25.8-33.5c-13.2,0.8-18.6,5.8-20.8,10
			c-0.8,1.5-1.2,2.9-1.4,4c0,1.4-0.2,2.2-0.2,2.2s-0.1-0.9,0.2-2.2c0.2-6.8-1.3-27.1-26.7-27.1c-1.5,0-3,0.1-4.7,0.2
			c-8.9,0.6-13.5,3.4-16.8,9.6c-2.2,4.1-3.8,9.8-5.7,17.3c-8.6-10.4-9.6-15.8-9.4-24.1l-0.7-92.6c0-1.8-0.5-3.6-1.3-5.3
			c-2.4-4.5-9.7-9.9-17.9-9.9c-6.3,0-13,3.2-18.4,12.3c-8.2,34.6-7.3,168.3-7.3,168.3s-19.1-1.1-27-39.6c-2.1-10.1-9-19.1-19.1-24.7
			c-5.6-3.1-10.4-5.2-14.5-5.2c-3.8,0-6.9,1.8-9.3,6.3c-0.3,0.5-0.5,1-0.8,1.6c-5.8,13.3,13.2,41.4,19.1,89.1
			c2.5,20.1,11.8,39.1,26.3,55.2c18.3,20.3,16.8,38.4,20.5,75.1l146-0.3c0,0-5.9-13.2,18.7-59.5c4.2-8,9-15.5,14.3-22.2
			c3-3.8,5.7-7.8,7.8-11.9c3.8-7.2,6.3-15,7.2-22.9C392.9,325.7,388.9,304.6,379.5,299z"/>
	</g>
	<g>
		<path class="st0" d="M307.1,284.9c0,0,0.1-0.8,0.2-2.2C307,284,307.1,284.9,307.1,284.9z"/>
	</g>
</g>
</svg>
