<?xml version="1.0"?>
<svg xmlns="http://www.w3.org/2000/svg" height="512px" viewBox="0 -1 512 512" width="512px" class=""><g><path d="m496.625 0h-291.121094l15.996094 46.089844h290.5v-30.714844c0-8.492188-6.882812-15.375-15.375-15.375zm0 0" data-original="#000000" class="active-path" data-old_color="#000000" fill="#DAE1E7"/><path d="m196.03125 66.507812-23.070312-66.507812h-157.585938c-8.492188 0-15.375 6.882812-15.375 15.375v479.652344c0 8.492187 6.882812 15.375 15.375 15.375h481.25c8.492188 0 15.375-6.882813 15.375-15.375v-418.191406h-301.433594c-6.550781 0-12.382812-4.140626-14.535156-10.328126zm-150.351562-11.511718c-9.46875 0-17.144532-7.675782-17.144532-17.144532 0-9.460937 7.675782-17.136718 17.144532-17.136718 9.460937 0 17.136718 7.675781 17.136718 17.136718 0 9.46875-7.675781 17.144532-17.136718 17.144532zm33.074218-17.144532c0-8.488281 6.886719-15.375 15.375-15.375h49.132813c8.484375 0 15.371093 6.886719 15.371093 15.375 0 8.496094-6.886718 15.371094-15.371093 15.371094h-49.132813c-8.488281 0-15.375-6.875-15.375-15.371094zm257.628906 167.457032v20.488281c0 8.484375-6.886718 15.371094-15.375 15.371094-8.488281 0-15.371093-6.882813-15.371093-15.371094v-20.488281c0-27.363282-22.273438-49.636719-49.636719-49.636719s-49.636719 22.273437-49.636719 49.636719v61.175781h140.882813c16.953125 0 30.746094 13.796875 30.746094 30.746094v117.835937c0 16.949219-13.792969 30.746094-30.746094 30.746094h-182.492188c-16.953125 0-30.746094-13.796875-30.746094-30.746094v-117.835937c0-16.949219 13.792969-30.746094 30.746094-30.746094h10.863282v-61.175781c0-44.316406 36.054687-80.382813 80.382812-80.382813s80.382812 36.066407 80.382812 80.382813zm0 0" data-original="#000000" class="active-path" data-old_color="#000000" fill="#DAE1E7"/><path d="m164.753906 297.230469v117.835937h182.492188.019531l-.019531-117.835937c-5.222656 0-177.871094 0-182.492188 0zm75.871094 38.21875c0-8.496094 6.890625-15.371094 15.375-15.371094s15.375 6.875 15.375 15.371094v41.398437c0 8.496094-6.890625 15.371094-15.375 15.371094s-15.375-6.875-15.375-15.371094zm0 0" data-original="#000000" class="active-path" data-old_color="#000000" fill="#DAE1E7"/></g> </svg>
