<?xml version="1.0" encoding="utf-8"?>
<!-- Generator: Adobe Illustrator 19.2.1, SVG Export Plug-In . SVG Version: 6.00 Build 0)  -->
<svg version="1.1" id="Layer_1" xmlns="http://www.w3.org/2000/svg" xmlns:xlink="http://www.w3.org/1999/xlink" x="0px" y="0px"
	 viewBox="0 0 500 500" style="enable-background:new 0 0 500 500;" xml:space="preserve">
<style type="text/css">
	.st0{fill:#FFFFFF;}
	.st1{fill:#F1F5F9;}
</style>
<line class="st0" x1="-63" y1="53.9" x2="-63" y2="230.8"/>
<g>
	<polygon class="st1" points="128.9,300.6 128.9,300.6 128.8,300.6 	"/>
	<polygon class="st1" points="200.1,241.1 128.9,300.6 263.2,412.8 490.2,223.3 438.3,179.2 264.7,299.6 	"/>
	<path class="st1" d="M364.4,461.2H41.6V68.4h49.5v15.7c0,8.3,8.2,15.1,18.1,15.1h0h4.5h0c10,0,18.1-6.8,18.1-15.1V68.4h52.9v15.7
		c0,8.3,8.2,15.1,18.1,15.1h4.5c10,0,18.1-6.8,18.1-15.1V68.4h52.9v15.7c0,8.3,8.2,15.1,18.1,15.1h4.5c10,0,18.1-6.8,18.1-15.1V68.4
		h10.8l34.5,28.3v84.7l36.2-25.1V84l-55.9-45.8h-25.6V22.9c0-8.3-8.1-15.1-18.1-15.1h-4.5c-10,0-18.1,6.8-18.1,15.1v15.3h-52.9V22.9
		c0-8.3-8.1-15.1-18.1-15.1h-4.5c-10,0-18.1,6.8-18.1,15.1v15.3h-52.9V22.9c0-8.3-8.1-15.1-18.1-15.1h0h-4.5h0
		c-10,0-18.1,6.8-18.1,15.1v15.3H5.4v453.3h395.2V351.5l-36.2,30.2V461.2z"/>
</g>
</svg>
