<?xml version="1.0"?>
<svg xmlns="http://www.w3.org/2000/svg" xmlns:xlink="http://www.w3.org/1999/xlink" xmlns:svgjs="http://svgjs.com/svgjs" version="1.1" width="512" height="512" x="0" y="0" viewBox="0 0 512 512" style="enable-background:new 0 0 512 512" xml:space="preserve" class=""><g><g xmlns="http://www.w3.org/2000/svg"><circle cx="256" cy="256" r="65.333" fill="#dae1e7" data-original="#000000" style="" class=""/><path d="m448.8 48.2h-76.478c-39.938 0-77.48-15.557-105.713-43.804-2.813-2.814-6.63-4.396-10.609-4.396s-7.796 1.582-10.609 4.396c-28.233 28.248-65.776 43.804-105.714 43.804h-76.477c-8.284 0-15 6.716-15 15v206.216c0 124.759 91.508 223.412 205.334 242.38.816.136 1.641.204 2.466.204s1.649-.068 2.466-.204c109.009-18.165 205.334-112.885 205.334-242.38v-206.216c0-8.284-6.716-15-15-15zm-97.467 207.8c0 7.632-.907 15.055-2.609 22.172l17.923 7.428.412-.995c3.168-7.655 11.943-11.292 19.597-8.122 7.654 3.169 11.291 11.942 8.122 19.597l-12.292 29.691c-2.263 5.468-9.969 12.108-19.597 8.122-7.654-3.169-11.291-11.942-8.122-19.597l.405-.978-17.96-7.443c-7.847 12.73-18.6 23.484-31.329 31.332l7.415 17.947.982-.407c7.652-3.175 16.428.458 19.601 8.111 3.173 7.652-.458 16.428-8.111 19.601l-29.643 12.291c-9.505 3.943-17.311-2.587-19.601-8.111-3.173-7.652.458-16.428 8.111-19.601l.949-.393-7.405-17.923c-7.12 1.703-14.547 2.611-22.182 2.611s-15.061-.908-22.182-2.611l-7.405 17.923.949.393c7.653 3.173 11.284 11.949 8.111 19.601-2.291 5.524-10.096 12.054-19.601 8.111l-29.643-12.291c-7.653-3.173-11.284-11.949-8.111-19.601 3.173-7.653 11.949-11.286 19.601-8.111l.982.407 7.415-17.947c-12.729-7.848-23.483-18.602-31.329-31.332l-17.96 7.443.405.978c3.168 7.654-.468 16.428-8.122 19.597-9.628 3.986-17.333-2.654-19.597-8.122l-12.292-29.691c-3.168-7.654.468-16.428 8.122-19.597 7.653-3.169 16.428.467 19.597 8.122l.412.995 17.923-7.428c-1.702-7.118-2.609-14.541-2.609-22.172s.907-15.055 2.609-22.172l-17.923-7.428-.412.995c-2.243 5.419-9.981 12.104-19.597 8.122-7.654-3.169-11.291-11.942-8.122-19.597l12.292-29.691c3.169-7.655 11.943-11.291 19.597-8.122s11.291 11.942 8.122 19.597l-.405.978 17.96 7.443c7.847-12.73 18.6-23.484 31.329-31.332l-7.415-17.947-.982.407c-1.879.779-3.824 1.148-5.739 1.148-5.884 0-11.468-3.485-13.862-9.259-3.173-7.652.458-16.428 8.111-19.601l29.643-12.291c7.651-3.174 16.428.458 19.601 8.111 3.173 7.652-.458 16.428-8.111 19.601l-.949.393 7.405 17.923c7.12-1.703 14.547-2.611 22.182-2.611s15.061.908 22.182 2.611l7.405-17.923-.949-.393c-7.653-3.173-11.284-11.949-8.111-19.601s11.95-11.285 19.601-8.111l29.643 12.291c7.653 3.173 11.284 11.949 8.111 19.601-2.394 5.773-7.978 9.259-13.862 9.259-1.915 0-3.86-.369-5.739-1.148l-.982-.407-7.415 17.947c12.729 7.848 23.483 18.602 31.329 31.332l17.96-7.443-.405-.978c-3.168-7.654.468-16.428 8.122-19.597 7.653-3.168 16.428.467 19.597 8.122l12.292 29.691c3.168 7.654-.468 16.428-8.122 19.597-9.615 3.982-17.353-2.703-19.597-8.122l-.412-.995-17.923 7.428c1.702 7.117 2.609 14.54 2.609 22.172z" fill="#dae1e7" data-original="#000000" style="" class=""/></g></g></svg>
