<?xml version="1.0" encoding="utf-8"?>
<!-- Generator: Adobe Illustrator 19.2.1, SVG Export Plug-In . SVG Version: 6.00 Build 0)  -->
<svg version="1.1" id="Layer_1" xmlns="http://www.w3.org/2000/svg" xmlns:xlink="http://www.w3.org/1999/xlink" x="0px" y="0px"
	 viewBox="0 0 512 512" style="enable-background:new 0 0 512 512;" xml:space="preserve">
<style type="text/css">
	.st0{fill:#DAE1E7;}
</style>
<g>
	<g>
		<path class="st0" d="M269.4,201.3c-36.3,0-65.9,29.6-65.9,65.9c0,36.3,29.6,65.9,65.9,65.9c36.3,0,65.9-29.6,65.9-65.9
			C335.3,230.8,305.7,201.3,269.4,201.3z M269.4,308.1c-22.6,0-41-18.4-41-41s18.4-41,41-41c22.6,0,41,18.4,41,41
			S292,308.1,269.4,308.1z"/>
	</g>
</g>
<g>
	<g>
		<path class="st0" d="M510.3,153.2c4.9-35.7-0.7-66-16.1-88.4c2.5-5.6,3.9-11.7,3.9-18.2c0-24.4-19.9-44.3-44.3-44.3
			c-16.5,0-30.9,9.1-38.6,22.5c-41.8-2.1-92.9,13.3-145.8,43.8C179,16.4,97.2,10.1,54.8,52.6c-18.4,18.4-28,44.8-28,76.7
			C11.1,136.1,0,151.8,0,170c0,24.4,19.9,44.3,44.3,44.3c0.3,0,0.5,0,0.8,0c6.8,17.3,15.4,35.1,25.7,52.9
			c-52.2,90.4-58.5,172.2-16,214.6c18.7,18.7,45.1,28,76.5,28c39.8,0,87.6-14.8,138.1-44c50.5,29.2,98.3,44,138.1,44
			c31.4,0,57.8-9.2,76.5-28c42.5-42.5,36.2-124.3-16.1-214.6C490.9,227.4,505.5,188.1,510.3,153.2z M453.8,27.2
			c10.7,0,19.4,8.7,19.4,19.4S464.5,66,453.8,66s-19.4-8.7-19.4-19.4S443.1,27.2,453.8,27.2z M409.6,49.5
			c1.5,23.1,20.8,41.4,44.2,41.4c8.5,0,16.4-2.4,23.2-6.6c9.2,16.8,12.2,39.1,8.6,65.5c-3.9,28.3-15.1,60.2-32.7,93
			c-20-30.4-44.1-59.7-71.8-87.4c-27.7-27.7-57-51.8-87.4-71.8C336.2,60.8,376.4,49,409.6,49.5z M44.3,189.4
			c-10.7,0-19.4-8.7-19.4-19.4c0-10.7,8.7-19.4,19.4-19.4s19.4,8.7,19.4,19.4C63.7,180.7,55,189.4,44.3,189.4z M69,206.8
			c11.9-8,19.7-21.5,19.7-36.8c0-21.9-16-40.1-36.9-43.7c0.5-23.8,7.5-43,20.6-56.1c31.9-31.9,98.4-26.3,172.7,13.4
			c-30.4,20-59.7,44.1-87.4,71.8c-27.7,27.7-51.8,57-71.8,87.4C79.3,230.7,73.7,218.7,69,206.8z M72.4,464.1
			c-31.9-31.9-26.3-98.4,13.4-172.7c20,30.4,44.1,59.7,71.8,87.4c27.7,27.7,57,51.8,87.4,71.8C170.8,490.4,104.3,496,72.4,464.1z
			 M175.3,361.2c-29.7-29.7-55.1-61.3-75.4-94.1c20.4-32.8,45.7-64.4,75.4-94.1c29.7-29.7,61.3-55.1,94.1-75.4
			c32.8,20.4,64.4,45.7,94.1,75.4c29.7,29.7,55.1,61.3,75.4,94.1c-20.4,32.7-45.7,64.4-75.4,94.1c-29.7,29.7-61.3,55.1-94.1,75.4
			C236.6,416.3,205,391,175.3,361.2z M466.4,464.1c-31.9,31.9-98.4,26.3-172.7-13.4c30.4-20,59.7-44.1,87.4-71.8
			c27.7-27.7,51.8-57,71.8-87.4C492.7,365.7,498.3,432.3,466.4,464.1z"/>
	</g>
</g>
</svg>
